<svg width="500" height="500" xmlns="http://www.w3.org/2000/svg" preserveAspectRatio="xMidYMid meet">
 <defs>
  <path id="c3E8gi4JDD" d="m377.1,30.8c21.2,0 38.3,17.2 38.3,38.3c0,7.8 0,-7.7 0,0c0,21.6 -17.5,39 -39,39c-68.6,0 -236.1,0 -304.8,0c-21.1,0 -38.2,-17.1 -38.2,-38.1c0,-7.9 0,7.6 0,0c0,-21.6 17.6,-39.2 39.2,-39.2c68.5,0 235.8,0 304.5,0z"/>
  <path id="afvqLVBkX" d="m377.1,142.6c21.2,0 38.3,17.1 38.3,38.2c0,7.8 0,-7.6 0,0c0,21.6 -17.5,39.1 -39,39.1c-68.6,0 -236.1,0 -304.8,0c-21.1,0 -38.2,-17.1 -38.2,-38.2c0,-7.8 0,7.6 0,0c0,-21.6 17.6,-39.1 39.2,-39.1c68.5,0 235.8,0 304.5,0z"/>
  <path id="c1NNiegqAx" d="m377.1,258.6c21.2,0 38.3,17.2 38.3,38.3c0,7.8 0,-7.6 0,0c0,21.6 -17.5,39 -39,39c-68.6,0 -236.1,0 -304.8,0c-21.1,0 -38.2,-17 -38.2,-38.1c0,-7.8 0,7.6 0,0c0,-21.6 17.6,-39.2 39.2,-39.2c68.5,0 235.8,0 304.5,0z"/>
 </defs>
 <g>
  <title>background</title>
  <rect fill="none" id="canvas_background" height="502" width="502" y="-1" x="-1"/>
 </g>
 <g>
  <title>Layer 1</title>
  <g id="svg_1">
   <g id="svg_2">
    <rect stroke="#000" rx="45" id="svg_12" height="100.000035" width="484.706056" y="9.411767" x="8.235225" stroke-width="0" fill="#00ff19"/>
    <rect stroke="#000" rx="45" id="svg_15" height="100.000035" width="484.706056" y="192.941156" x="7.646972" stroke-width="0" fill="#00ff19"/>
    <rect stroke="#000" rx="45" id="svg_16" height="100.000035" width="484.706056" y="381.176434" x="5.882283" stroke-width="0" fill="#00ff19"/>
   </g>
  </g>
  <rect id="svg_9" y="535" x="651.3" width="0" height="0" fill="rgb(255, 255, 255)"/>
 </g>
</svg>